<svg version="1.1" xmlns="http://www.w3.org/2000/svg" viewBox="0 0 1024 1024"><path d="M769.7 865.8c-57 0-103.5-45.9-104.4-102.6h-304c-1 56.7-47.5 102.6-104.4 102.6-57.6 0-104.5-46.9-104.5-104.5v-0.3c-48.9-9.9-85.8-53.3-85.8-105v-59.6c0-11.8 9.6-21.4 21.4-21.4s21.4 9.6 21.4 21.4V656c0 35.5 28.9 64.3 64.3 64.3h21.4v41c0 34 27.7 61.6 61.6 61.6 34 0 61.6-27.7 61.6-61.6v-41H708v41c0 34 27.7 61.6 61.6 61.6 34 0 61.6-27.7 61.6-61.6v-41h21.4c35.5 0 64.3-28.9 64.3-64.3V467.9c0-11.5-9.4-20.9-20.9-20.9h-16.4c-14.1 0-26.7-7.8-33.1-20.3l-1.4-3.4-36.5-119.7c-19.6-64.5-78.1-107.8-145.5-107.8H539.9c-11.8 0-21.4-9.6-21.4-21.4s9.6-21.4 21.4-21.4h123.5c86.4 0 161.3 55.5 186.5 138.2l34.5 113.1h11.9c35.1 0 63.7 28.6 63.7 63.7v188c0 51.8-36.9 95.1-85.8 105v0.3c0 57.7-46.9 104.5-104.5 104.5z" fill="#4A4A4A" /><path d="M232 562.8c-8.2 0-16.4-2.8-23.1-8.5l-135.1-116c-7.2-6.1-11.5-14.7-12.2-24.2-0.7-9.4 2.3-18.6 8.4-25.8l169.5-197.4c16.2-18.9 39.7-29.7 64.6-29.7h0.9l87.7 0.9c20.4 0.2 37.6 15 40.9 35.1l14.2 86.6c4.1 24.9-3 50.1-19.4 69.3L258.9 550.4c-7 8.2-16.9 12.4-26.9 12.4z m72.2-369.5c-15.5 0-30.1 6.7-40.2 18.5L94.4 409.2c-0.7 0.9-0.8 1.8-0.8 2.4 0 0.6 0.3 1.5 1.1 2.2l135.1 116c1.4 1.2 3.5 1 4.7-0.4L404 332c10.2-11.9 14.6-27.6 12.1-43.1L402 202.4c-0.8-4.7-4.8-8.1-9.5-8.2l-87.7-0.9h-0.6z" fill="#E31E07" /><path d="M356.6 245m-18 0a18 18 0 1 0 36 0 18 18 0 1 0-36 0Z" fill="#E31E07" /><path d="M225.3 450c-5.4 6.3-11.8 10.4-19.3 12.4-3 0.6-4.7-0.7-5.1-3.7-0.3-3.4 1.2-5.4 4.8-6.2 5.4-1.7 9.7-4.5 13-8.4 2.8-3.3 4.3-6.4 4.6-9.3 0.3-2.8-0.6-5.2-2.7-7-2-1.7-4.3-2.3-6.9-1.7-1.6 0.3-4.3 1.5-8.2 3.5-0.1 0.1-0.2 0.1-0.3 0.2l-9.4 5c-9.2 5-16.6 5-22.4 0.1-3.9-3.3-5.6-7.8-5.3-13.4 0.3-5.6 2.7-11 7.2-16.2 4.5-5.2 9.9-8.7 16.3-10.3 2.7-0.6 4.2 0.5 4.6 3.3 0.4 3.1-1 5-4 5.8-4 1.5-7.3 3.8-10.1 7-2.4 2.8-3.8 5.5-4.1 8.2-0.3 2.6 0.5 4.8 2.5 6.5 1.9 1.6 4.2 2 7 1.3 1.7-0.5 4.4-1.7 8-3.7l9.3-5c4.4-2.4 8.3-3.6 11.7-3.8 4-0.2 7.7 1.2 11.1 4.1 4 3.5 5.9 8.1 5.7 13.8-0.4 5.9-3 11.8-8 17.5zM248 421.8c-3 3.5-5.5 3.4-7.5-0.3l-28.2-50.7c-0.7-1.3-0.9-2.6-0.7-4.1 0.2-1.5 0.8-2.8 1.8-4l1.8-2.1c1-1.2 2.2-2 3.7-2.5 1.4-0.4 2.8-0.4 4.1 0.1l54.1 20.2c4.1 1.5 4.6 4.1 1.5 7.7-2.1 2.5-4.5 3.1-7.3 2l-13.9-5.7-8.1 9.5-8.1 9.5 7.8 13c1.4 2.6 1.1 5-1 7.4z m-11.3-27.5l6.4-7.4 6.4-7.5-8.4-3.5c-3.8-1.5-9.6-3.9-17.2-7.3-1.6-0.7-2.8-1.2-3.6-1.5l-0.3 0.3c3.7 5.5 7.7 11.9 12 19.1l4.7 7.8zM293.5 368.9c-1.2 1.4-2.6 2.2-4.2 2.4-1.6 0.2-3-0.2-4.3-1.4l-40.9-35.1c-2.6-2.2-2.6-4.7-0.2-7.6 2.5-2.9 5-3.2 7.6-1l38.7 33.2 16.7-19.4c2.1-2.4 4.2-2.7 6.4-0.8 2.2 1.9 2.2 4 0.2 6.4L303 357.8l-9.5 11.1zM326 331c-1.2 1.4-2.6 2.2-4.2 2.4-1.6 0.2-3-0.2-4.3-1.4l-40.4-34.7c-1.3-1.1-2-2.4-2-4s0.6-3.1 1.8-4.5l20.5-23.9c2-2.4 4.1-2.6 6.3-0.8 2.2 1.9 2.3 4 0.2 6.4l-17.2 20.1 13.7 11.7 14.1-16.4c2.1-2.4 4.2-2.7 6.4-0.8 2.2 1.9 2.2 4 0.1 6.4L306.8 308l15.9 13.6 17.9-20.8c2.1-2.4 4.2-2.7 6.4-0.8 2.2 1.9 2.2 4 0.2 6.4L336 319.3 326 331z" fill="#E31E07" opacity=".15" /></svg>