<svg version="1.1" xmlns="http://www.w3.org/2000/svg" viewBox="0 0 1024 1024"><path d="M865.2 795c-27.8 0-50.8-20.4-55-47H685.5c-4.2 26.6-27.3 47-55 47-28.7 0-52.4-21.8-55.4-49.7-22.9-7.4-39.6-28.9-39.6-54.2V605c0-20.3 16.4-36.8 36.6-37.1l14.1-46.2c12.5-41.2 49.9-68.8 92.9-68.8h137.4c43 0 80.4 27.7 92.9 68.8l14.1 46.2c20.2 0.2 36.6 16.8 36.6 37.1v86c0 25.4-16.7 46.9-39.6 54.2-2.9 28-26.6 49.8-55.3 49.8z m-214.4-82.4h194.1v26.6c0 11.2 9.1 20.3 20.3 20.3 11.2 0 20.3-9.1 20.3-20.3v-26.6h17.7c11.9 0 21.6-9.7 21.6-21.6v-86.1c0-0.9-0.7-1.7-1.7-1.7h-7.5c-9.4 0-17.9-5.2-22.2-13.6l-1.1-2.8-16.7-54.8c-8-26.2-31.7-43.8-59.1-43.8H679.1c-27.4 0-51.1 17.6-59.1 43.8l-17.8 57.6c-4.3 8.4-12.8 13.6-22.2 13.6h-7.5c-0.9 0-1.7 0.7-1.7 1.7V691c0 11.9 9.7 21.6 21.6 21.6h17.7v26.6c0 11.2 9.1 20.3 20.3 20.3s20.3-9.1 20.3-20.3v-26.6z" fill="#4A4A4A" /><path d="M686.3 896.8H176.1c-60.6 0-109.8-49.3-109.8-109.8V231.7c0-60.5 49.3-109.8 109.8-109.8H673c60.5 0 109.8 49.3 109.8 109.8v138c0 11.4-9.2 20.6-20.6 20.6-11.4 0-20.6-9.2-20.6-20.6v-138c0-37.8-30.7-68.5-68.5-68.5h-497c-37.8 0-68.5 30.7-68.5 68.5V787c0 37.8 30.8 68.5 68.5 68.5h510.2c11.4 0 20.6 9.2 20.6 20.6s-9.2 20.7-20.6 20.7z" fill="#4A4A4A" /><path d="M270.5 722.6h-48.1c-8.1 0-14.7-6.6-14.7-14.7s6.6-14.7 14.7-14.7h48.1c8.1 0 14.7 6.6 14.7 14.7s-6.6 14.7-14.7 14.7zM373.8 722.6h-48.1c-8.1 0-14.7-6.6-14.7-14.7s6.6-14.7 14.7-14.7h48.1c8.1 0 14.7 6.6 14.7 14.7s-6.6 14.7-14.7 14.7zM477.1 722.6H429c-8.1 0-14.7-6.6-14.7-14.7s6.6-14.7 14.7-14.7h48.1c8.1 0 14.7 6.6 14.7 14.7s-6.6 14.7-14.7 14.7zM490.7 321c-5.8-5.7-15.1-5.7-20.8 0.1l-86.6 87.1-86.6-87.1c-5.7-5.8-15.1-5.8-20.8-0.1-5.8 5.7-5.8 15.1-0.1 20.8l72.1 72.5h-54.5c-8.1 0-14.7 6.6-14.7 14.7s6.6 14.7 14.7 14.7h75.1v42.6h-67.2c-8.1 0-14.7 6.6-14.7 14.7s6.6 14.7 14.7 14.7h67.2v63.6c0 8.1 6.6 14.7 14.7 14.7s14.7-6.6 14.7-14.7v-63.6h67.2c8.1 0 14.7-6.6 14.7-14.7s-6.6-14.7-14.7-14.7H398v-42.6h75.1c8.1 0 14.7-6.6 14.7-14.7s-6.6-14.7-14.7-14.7h-54.5l72-72.5c5.9-5.7 5.8-15 0.1-20.8z" fill="#E31E07" /></svg>