<svg version="1.1" xmlns="http://www.w3.org/2000/svg" viewBox="0 0 1024 1024"><path d="M228.2 118c-61.2 16.9-74.9 30.6-91.8 91.8-16.9-61.2-30.6-74.9-91.8-91.8 61.2-16.9 74.9-30.6 91.8-91.8 17 61.2 30.7 75 91.8 91.8zM89.1 276.5c-27.6 7.6-33.8 13.8-41.4 41.4-7.6-27.6-13.8-33.8-41.4-41.4 27.6-7.6 33.8-13.8 41.4-41.4 7.6 27.6 13.8 33.8 41.4 41.4z" fill="#E31E07" /><path d="M896.4 408.9h-11.6l-33.7-110.5c-24.6-80.7-97.8-135-182.2-135H375.6c-84.4 0-157.6 54.3-182.2 135l-33.7 110.5h-11.6c-23.8 0-44.5 13.4-55 33-4.7 8.7-7.3 18.7-7.3 29.2v183.8c0 50.6 36.1 92.9 83.8 102.6v0.3c0 56.3 45.8 102.1 102.1 102.1 55.7 0 101.1-44.8 102.1-100.3h297c1 55.5 46.4 100.3 102.1 100.3 56.3 0 102.1-45.8 102.1-102.1v-0.3c47.8-9.7 83.8-52 83.8-102.6V471.1c-0.1-34.3-28.1-62.2-62.4-62.2z m20.4 246c0 34.7-28.2 62.9-62.9 62.9H833v40.1c0 33.2-27 60.2-60.2 60.2s-60.2-27-60.2-60.2v-40.1H331.9v40.1c0 33.2-27 60.2-60.2 60.2s-60.2-27-60.2-60.2v-40.1h-20.9c-34.7 0-62.9-28.2-62.9-62.9V471.1c0-11.3 9.1-20.4 20.4-20.4h16c8.9 0 17.3-3.2 23.7-8.8 3.5-3 6.4-6.7 8.6-11l37-120.4c19.2-63 76.3-105.3 142.2-105.3h293.3c65.9 0 123 42.3 142.2 105.3l35.6 117 1.4 3.4c6.2 12.2 18.6 19.8 32.3 19.8h16c11.3 0 20.4 9.1 20.4 20.4v183.8z" fill="#3D3D3D" /><path d="M275.3 642.3m-43.9 0a43.9 43.9 0 1 0 87.8 0 43.9 43.9 0 1 0-87.8 0Z" fill="#4A4A4A" /><path d="M769.1 642.3m-43.9 0a43.9 43.9 0 1 0 87.8 0 43.9 43.9 0 1 0-87.8 0Z" fill="#4A4A4A" /><path d="M680.9 453.4H363.6c-16.1 0-27.8-15.3-23.5-30.8l12.5-45.5c12.2-44.5 52.6-75.4 98.8-75.4h141.8c46.2 0 86.6 30.9 98.8 75.4l12.5 45.5c4.2 15.5-7.5 30.8-23.6 30.8z" fill="#E31E07" opacity=".15" /><path d="M89.1 276.5c-27.6 7.6-33.8 13.8-41.4 41.4-7.6-27.6-13.8-33.8-41.4-41.4 27.6-7.6 33.8-13.8 41.4-41.4 7.6 27.6 13.8 33.8 41.4 41.4zM44.7 118c61.2-16.9 74.9-30.6 91.8-91.8 16.9 61.2 30.6 74.9 91.8 91.8-61.2 16.9-74.9 30.6-91.8 91.8-16.9-61.2-30.6-74.9-91.8-91.8z" fill="#E31E07" /></svg>