<svg version="1.1" xmlns="http://www.w3.org/2000/svg" viewBox="0 0 1024 1024"><path d="M677.1 449.8H352.4c-16.5 0-28.4-15.7-24.1-31.6l12.8-46.6c12.5-45.6 53.9-77.2 101.1-77.2h145.2c47.2 0 88.7 31.6 101.1 77.2l12.8 46.6c4.2 15.9-7.7 31.6-24.2 31.6z" fill="#E31E07" opacity=".15" /><path d="M258.3 865.8c-57.6 0-104.5-46.9-104.5-104.5v-0.3C104.9 751.1 68 707.7 68 656V467.9c0-35.1 28.6-63.7 63.7-63.7h11.8L178 291.1c25.2-82.6 100.1-138.2 186.5-138.2h300.2c86.4 0 161.3 55.5 186.5 138.2l36.5 119.7c3.5 11.3-2.9 23.3-14.2 26.7-11.3 3.5-23.3-2.9-26.7-14.2l-36.5-119.7c-19.6-64.5-78.1-107.8-145.5-107.8H364.6c-67.4 0-125.9 43.3-145.5 107.8l-37.8 123.1c-6.3 12.5-19 20.3-33.1 20.3h-16.4c-11.5 0-20.9 9.4-20.9 20.9V656c0 35.5 28.9 64.3 64.3 64.3h21.4v41c0 34 27.7 61.6 61.6 61.6 34 0 61.6-27.7 61.6-61.6v-41h226.5c11.8 0 21.4 9.6 21.4 21.4 0 11.8-9.6 21.4-21.4 21.4H362.8c-1 56.9-47.5 102.7-104.5 102.7z" fill="#4A4A4A" /><path d="M262.1 643.1m-44.9 0a44.9 44.9 0 1 0 89.8 0 44.9 44.9 0 1 0-89.8 0Z" fill="#4A4A4A" /><path d="M949.4 807.1l-48.5-41.7c19.7-25.4 31.6-57.2 31.6-91.8 0-82.8-67.4-150.2-150.2-150.2S632 590.7 632 673.6s67.4 150.2 150.2 150.2c32.8 0 63-10.7 87.7-28.5l51.5 44.3c4 3.5 9 5.2 14 5.2 6 0 12-2.5 16.3-7.5 7.7-9 6.7-22.5-2.3-30.2zM664.2 673.6c0-65.1 53-118.1 118.1-118.1s118.1 53 118.1 118.1-53 118.1-118.1 118.1-118.1-53-118.1-118.1z" fill="#E31E07" /></svg>